<?xml version="1.0" encoding="UTF-8"?>
<svg id="Layer_2" data-name="Layer 2" xmlns="http://www.w3.org/2000/svg" viewBox="0 0 675 675">
  <defs>
    <style>
      .cls-1 {
        fill: #e38a2f;
      }
    </style>
  </defs>
  <g id="Flat">
    <path class="cls-1" d="M337.5,193.75c-79.39,0-143.75,64.36-143.75,143.75s64.36,143.75,143.75,143.75,143.75-64.36,143.75-143.75h0c-.09-79.35-64.4-143.66-143.75-143.75ZM337.5,406.25c-37.97,0-68.75-30.78-68.75-68.75s30.78-68.75,68.75-68.75,68.75,30.78,68.75,68.75c-.04,37.95-30.8,68.71-68.75,68.75ZM487.5,0H187.5C84,.12.12,84,0,187.5v300c.12,103.5,84,187.38,187.5,187.5h300c103.5-.12,187.38-84,187.5-187.5V187.5C674.88,84,591,.12,487.5,0ZM600,487.5c-.07,62.1-50.4,112.43-112.5,112.5H187.5c-62.1-.07-112.43-50.4-112.5-112.5V187.5c.07-62.1,50.4-112.43,112.5-112.5h300c62.1.07,112.43,50.4,112.5,112.5v300ZM550,175c0,27.61-22.39,50-50,50s-50-22.39-50-50,22.39-50,50-50c27.6.03,49.97,22.4,50,50Z"/>
  </g>
</svg>