<?xml version="1.0" encoding="UTF-8"?>
<svg id="Layer_2" data-name="Layer 2" xmlns="http://www.w3.org/2000/svg" viewBox="0 0 67.92 11.24">
  <defs>
    <style>
      .cls-1 {
        fill: #d84f32;
      }
    </style>
  </defs>
  <g id="Layer_1-2" data-name="Layer 1">
    <g>
      <path class="cls-1" d="M0,9.99c0-.48.26-.74.74-.74h.17v-4.93h-.17c-.48,0-.74-.26-.74-.74v-.36c0-.48.26-.74.74-.74h2.01c.48,0,.74.26.74.74v2.52h.55l.92-1.42c-.48,0-.76-.26-.76-.74v-.36c0-.48.26-.74.74-.74h2.58c.48,0,.74.26.74.74v.36c0,.48-.26.73-.74.74l-1.58,2.18v.02s.4.18.71.86l.86,1.86c.48,0,.74.26.74.74v.36c0,.48-.26.74-.74.74h-1.01c-.72,0-1.03-.22-1.22-.64l-1.13-2.47c-.1-.2-.26-.24-.58-.24h-.1v1.5c.52,0,.78.26.78.74v.36c0,.48-.26.74-.74.74H.74c-.48,0-.74-.26-.74-.74v-.36Z"/>
      <path class="cls-1" d="M8.84,9.99c0-.48.26-.74.74-.74h.17v-4.93h-.17c-.48,0-.74-.26-.74-.74v-.36c0-.48.26-.74.74-.74h3.23c.67,0,1.3.01,1.8.16,1.1.31,1.82,1.24,1.82,2.48,0,1.02-.48,1.85-1.24,2.38v.02s.37.16.58.58l.56,1.16c.48,0,.74.26.74.74v.36c0,.48-.26.74-.74.74h-1.01c-.72,0-1.02-.23-1.22-.64l-.98-1.98c-.11-.23-.2-.32-.61-.32h-.17v1.09c.52,0,.78.26.78.74v.36c0,.48-.26.74-.74.74h-2.79c-.48,0-.74-.26-.74-.74v-.36ZM12.98,6.27c.59,0,.91-.32.91-.94,0-.53-.26-.86-1.1-.86h-.44v1.8h.64Z"/>
      <path class="cls-1" d="M17.5,9.99c0-.48.26-.74.74-.74h.17v-4.93h-.17c-.48,0-.74-.26-.74-.74v-.36c0-.48.26-.74.74-.74h5.35c.48,0,.74.26.74.74v1.31c0,.48-.26.74-.74.74h-.67c-.48,0-.74-.26-.74-.79h-1.18v1.27h1.54c.48,0,.74.26.74.74v.53c0,.48-.26.74-.74.74h-1.54v1.33h1.3v-.02c0-.48.26-.74.74-.74h.67c.48,0,.74.26.74.74v1.28c0,.48-.26.74-.74.74h-5.47c-.48,0-.74-.26-.74-.74v-.36Z"/>
      <path class="cls-1" d="M26.04,4.32h-.16c-.48,0-.74-.26-.74-.74v-.36c0-.48.26-.74.74-.74h2.89c.48,0,.74.26.74.74v.36c0,.48-.26.74-.74.74h-.14v3.45c0,.3.07.56.17.74.17.3.55.49,1.03.49.43,0,.76-.13.98-.47.13-.2.18-.44.18-.77v-3.45h-.14c-.48,0-.74-.26-.74-.74v-.36c0-.48.26-.74.74-.74h2.9c.48,0,.74.26.74.74v.36c0,.48-.26.74-.74.74h-.17v3.44c0,.88-.29,1.75-.77,2.31-.7.82-1.88,1.16-3,1.16-1.24,0-2.33-.42-2.99-1.12-.55-.59-.79-1.43-.79-2.36v-3.44Z"/>
      <path class="cls-1" d="M35.21,9.99c0-.36.08-.59.3-.88l3.08-4.25c.17-.24.37-.4.4-.41v-.02s-.29.04-.53.04h-1.06v.41c0,.48-.26.74-.74.74h-.67c-.48,0-.74-.26-.74-.74v-1.67c0-.48.26-.74.74-.74h5.32c.48,0,.74.31.74.79v.28c0,.36-.08.59-.3.88l-3.11,4.28c-.17.24-.37.4-.4.41v.02s.29-.04.53-.04h1.27v-.47c0-.48.26-.74.74-.74h.67c.48,0,.74.26.74.74v1.73c0,.48-.26.74-.74.74h-5.52c-.48,0-.74-.31-.74-.79v-.31Z"/>
      <path class="cls-1" d="M42.89,9.99c0-.48.26-.74.74-.74h.17v-4.93h-.17c-.48,0-.74-.26-.74-.74v-.36c0-.48.26-.74.74-.74h3.33c.71,0,1.1,0,1.61.14,1.01.31,1.67,1.08,1.67,2.12,0,.7-.32,1.45-1.01,1.83v.02c1.08.34,1.36,1.18,1.36,1.93,0,1.38-1,2.23-2.08,2.47-.47.1-.82.1-1.28.1h-3.6c-.48,0-.74-.26-.74-.74v-.36ZM47.09,5.67c.42,0,.59-.28.59-.6,0-.35-.18-.6-.62-.6h-.66v1.2h.7ZM47.31,9.09c.48,0,.7-.32.7-.74,0-.38-.18-.66-.67-.66h-.95v1.4h.92Z"/>
      <path class="cls-1" d="M50.69,9.99c0-.48.26-.7.65-.73l1.98-6.18c.13-.41.41-.61.84-.61h1.67c.43,0,.71.2.84.61l1.99,6.19c.37.02.65.24.65.72v.36c0,.48-.26.74-.74.74h-2.41c-.48,0-.74-.26-.74-.74v-.36c0-.48.12-.74.34-.74h.34l-.17-.79h-1.83l-.17.79c.43,0,.67.26.67.74v.36c0,.48-.26.74-.74.74h-2.4c-.48,0-.74-.26-.74-.74v-.36ZM52.55.74c0-.48.26-.74.74-.74h.26c.48,0,.74.26.74.74v.42c0,.48-.26.74-.74.74h-.26c-.48,0-.74-.26-.74-.74v-.42ZM55.58,6.87l-.34-1.31c-.17-.64-.22-1.1-.23-1.15h-.06s-.06.53-.23,1.15l-.35,1.31h1.2ZM55.62.74c0-.48.26-.74.74-.74h.28c.48,0,.74.26.74.74v.42c0,.48-.26.74-.74.74h-.28c-.48,0-.74-.26-.74-.74v-.42Z"/>
      <path class="cls-1" d="M59.68,9.99c0-.48.26-.74.74-.74h.17v-4.93h-.17c-.48,0-.74-.26-.74-.74v-.36c0-.48.26-.74.74-.74h3.23c.67,0,1.3.01,1.8.16,1.1.31,1.82,1.24,1.82,2.48,0,1.02-.48,1.85-1.24,2.38v.02s.37.16.58.58l.56,1.16c.48,0,.74.26.74.74v.36c0,.48-.26.74-.74.74h-1.01c-.72,0-1.02-.23-1.22-.64l-.98-1.98c-.11-.23-.2-.32-.61-.32h-.17v1.09c.52,0,.78.26.78.74v.36c0,.48-.26.74-.74.74h-2.79c-.48,0-.74-.26-.74-.74v-.36ZM63.81,6.27c.59,0,.91-.32.91-.94,0-.53-.26-.86-1.1-.86h-.44v1.8h.64Z"/>
    </g>
  </g>
</svg>